<svg width="60" height="60" viewBox="0 0 60 60" fill="none" xmlns="http://www.w3.org/2000/svg">
<path opacity="0.21" d="M37 0C49.7025 0 60 10.2975 60 23V37C60 49.7025 49.7025 60 37 60H23C10.2975 60 0 49.7025 0 37V23C0 10.2975 10.2975 0 23 0H37Z" fill="#A2BBF7"/>
<path d="M34 16.6667H22C21.2927 16.6667 20.6145 16.9477 20.1144 17.4478C19.6143 17.9479 19.3333 18.6262 19.3333 19.3334V40.6667C19.3333 41.374 19.6143 42.0523 20.1144 42.5524C20.6145 43.0525 21.2927 43.3334 22 43.3334H38C38.7072 43.3334 39.3855 43.0525 39.8856 42.5524C40.3857 42.0523 40.6666 41.374 40.6666 40.6667V23.3334L34 16.6667Z" stroke="#2563EB" stroke-width="2" stroke-linecap="round" stroke-linejoin="round"/>
<path d="M32.6667 16.6667V22.0001C32.6667 22.7073 32.9476 23.3856 33.4477 23.8857C33.9478 24.3858 34.6261 24.6667 35.3334 24.6667H40.6667" stroke="#2563EB" stroke-width="2" stroke-linecap="round" stroke-linejoin="round"/>
<path d="M27.3334 26H24.6667" stroke="#2563EB" stroke-width="2" stroke-linecap="round" stroke-linejoin="round"/>
<path d="M35.3334 31.3333H24.6667" stroke="#2563EB" stroke-width="2" stroke-linecap="round" stroke-linejoin="round"/>
<path d="M35.3334 36.6667H24.6667" stroke="#2563EB" stroke-width="2" stroke-linecap="round" stroke-linejoin="round"/>
</svg>
