<svg width="60" height="60" viewBox="0 0 60 60" fill="none" xmlns="http://www.w3.org/2000/svg">
<path opacity="0.21" d="M37 0C49.7025 0 60 10.2975 60 23V37C60 49.7025 49.7025 60 37 60H23C10.2975 60 0 49.7025 0 37V23C0 10.2975 10.2975 0 23 0H37Z" fill="#A2BBF7"/>
<path d="M18 30C18 32.3734 18.7038 34.6935 20.0224 36.6668C21.3409 38.6402 23.2151 40.1783 25.4078 41.0866C27.6005 41.9948 30.0133 42.2324 32.3411 41.7694C34.6689 41.3064 36.8071 40.1635 38.4853 38.4853C40.1635 36.8071 41.3064 34.6689 41.7694 32.3411C42.2324 30.0133 41.9948 27.6005 41.0866 25.4078C40.1783 23.2151 38.6402 21.3409 36.6668 20.0224C34.6935 18.7038 32.3734 18 30 18C26.6453 18.0126 23.4253 19.3216 21.0133 21.6533L18 24.6667" stroke="#2563EB" stroke-width="2" stroke-linecap="round" stroke-linejoin="round"/>
<path d="M18 18V24.6667H24.6667" stroke="#2563EB" stroke-width="2" stroke-linecap="round" stroke-linejoin="round"/>
</svg>
