<svg width="60" height="60" viewBox="0 0 60 60" fill="none" xmlns="http://www.w3.org/2000/svg">
<path opacity="0.21" d="M37 0C49.7025 0 60 10.2975 60 23V37C60 49.7025 49.7025 60 37 60H23C10.2975 60 0 49.7025 0 37V23C0 10.2975 10.2975 0 23 0H37Z" fill="#A2BBF7"/>
<path d="M38 41.9999C38 39.1709 36.8762 36.4578 34.8758 34.4574C32.8754 32.4571 30.1623 31.3333 27.3333 31.3333C24.5043 31.3333 21.7912 32.4571 19.7909 34.4574C17.7905 36.4578 16.6667 39.1709 16.6667 41.9999" stroke="#2563EB" stroke-width="2" stroke-linecap="round" stroke-linejoin="round"/>
<path d="M27.3333 31.3333C31.0152 31.3333 34 28.3486 34 24.6667C34 20.9848 31.0152 18 27.3333 18C23.6514 18 20.6667 20.9848 20.6667 24.6667C20.6667 28.3486 23.6514 31.3333 27.3333 31.3333Z" stroke="#2563EB" stroke-width="2" stroke-linecap="round" stroke-linejoin="round"/>
<path d="M43.3333 40.6667C43.3333 36.1733 40.6667 32 38 30C38.8766 29.3424 39.5775 28.4788 40.0408 27.4857C40.504 26.4926 40.7153 25.4006 40.656 24.3064C40.5967 23.2122 40.2686 22.1495 39.7006 21.2123C39.1327 20.2751 38.3425 19.4924 37.4 18.9333" stroke="#2563EB" stroke-width="2" stroke-linecap="round" stroke-linejoin="round"/>
</svg>
